<svg xmlns="http://www.w3.org/2000/svg" width="1920" height="1260" viewBox="0 0 1920 1260">
  <defs>
    <style>
      .cls-1 {
        fill-rule: evenodd;
      }
    </style>
  </defs>
  <path id="Color_Fill_1" data-name="Color Fill 1" class="cls-1" d="M0,0H1920V797q-6.495,6-13,12l-65-8-79-3c0.33-1.667.67-3.333,1-5l11-3c-7.63-69.583.24-150.531-95-130-22.39,4.827-31.73,14.612-57,13,0.38-12.643,5.3-14.219,8-22,7.59-21.913-12.84-46.362-24-52-17.35-8.763-106.04-3-134-3H1166c-44.73,0-105.49-4.911-132,15,0.2,56.486,22.06,131.274,0,178-17.04,9.627-29.18,2.924-52,8-60.5,13.455-133.975-3.11-199,7-19.1,2.969-44.688,3-62,6H671c-60.772,9.444-145.205,13.687-207,3H415c-34.53,0-75.232,2.375-105-3H258c-53.269-9.146-170.167-26.475-226-10L0,801V0ZM1596,834c0.65-12.522,11.16-62.251,18-67,1.67-1,3.33-2,5-3-1.33,1.667-2.67,3.333-4,5,32.94-8.634,13.18-66.972,69-67h23c5.77,1.835,7.87,7.7,12,11q9.495,6.5,19,13c9.61,14.847-.37,36.274-8,46C1717.66,787.736,1622.33,833.407,1596,834Z"/>
</svg>
